<svg width="482" height="475" viewBox="0 0 482 475" fill="none" xmlns="http://www.w3.org/2000/svg">
<rect width="482" height="475" fill="white"/>
<path d="M218 219.281C218 216.538 220.208 214.312 222.929 214.312H232.786C235.507 214.312 237.714 216.538 237.714 219.281V229.219C237.714 231.962 235.507 234.188 232.786 234.188H222.929C220.208 234.188 218 231.962 218 229.219V219.281ZM224.571 220.938V227.562H231.143V220.938H224.571ZM218 245.781C218 243.038 220.208 240.812 222.929 240.812H232.786C235.507 240.812 237.714 243.038 237.714 245.781V255.719C237.714 258.462 235.507 260.688 232.786 260.688H222.929C220.208 260.688 218 258.462 218 255.719V245.781ZM224.571 247.438V254.062H231.143V247.438H224.571ZM249.214 214.312H259.071C261.792 214.312 264 216.538 264 219.281V229.219C264 231.962 261.792 234.188 259.071 234.188H249.214C246.493 234.188 244.286 231.962 244.286 229.219V219.281C244.286 216.538 246.493 214.312 249.214 214.312ZM257.429 220.938H250.857V227.562H257.429V220.938ZM244.286 242.469C244.286 241.558 245.025 240.812 245.929 240.812H252.5C253.404 240.812 254.143 241.558 254.143 242.469C254.143 243.38 254.882 244.125 255.786 244.125H259.071C259.975 244.125 260.714 243.38 260.714 242.469C260.714 241.558 261.454 240.812 262.357 240.812C263.261 240.812 264 241.558 264 242.469V252.406C264 253.317 263.261 254.062 262.357 254.062H255.786C254.882 254.062 254.143 253.317 254.143 252.406C254.143 251.495 253.404 250.75 252.5 250.75C251.596 250.75 250.857 251.495 250.857 252.406V259.031C250.857 259.942 250.118 260.688 249.214 260.688H245.929C245.025 260.688 244.286 259.942 244.286 259.031V242.469ZM255.786 260.688C255.35 260.688 254.932 260.513 254.624 260.202C254.316 259.892 254.143 259.471 254.143 259.031C254.143 258.592 254.316 258.171 254.624 257.86C254.932 257.549 255.35 257.375 255.786 257.375C256.221 257.375 256.639 257.549 256.947 257.86C257.255 258.171 257.429 258.592 257.429 259.031C257.429 259.471 257.255 259.892 256.947 260.202C256.639 260.513 256.221 260.688 255.786 260.688ZM262.357 260.688C261.921 260.688 261.504 260.513 261.195 260.202C260.887 259.892 260.714 259.471 260.714 259.031C260.714 258.592 260.887 258.171 261.195 257.86C261.504 257.549 261.921 257.375 262.357 257.375C262.793 257.375 263.211 257.549 263.519 257.86C263.827 258.171 264 258.592 264 259.031C264 259.471 263.827 259.892 263.519 260.202C263.211 260.513 262.793 260.688 262.357 260.688Z" fill="black"/>
</svg>
